<?xml version="1.0" encoding="UTF-8"?>
<svg xmlns="http://www.w3.org/2000/svg" xmlns:xlink="http://www.w3.org/1999/xlink" width="1500px" height="1500px" viewBox="0 0 1500 1500" version="1.1">
<defs>
<clipPath id="clip1">
  <path d="M 575.105469 461.152344 L 923.53125 461.152344 L 923.53125 1039.605469 L 575.105469 1039.605469 Z M 575.105469 461.152344 "/>
</clipPath>
<clipPath id="clip2">
  <path d="M 187.714844 282.753906 L 766 282.753906 L 766 1218.003906 L 187.714844 1218.003906 Z M 187.714844 282.753906 "/>
</clipPath>
<clipPath id="clip3">
  <path d="M 187.714844 282.753906 L 782 282.753906 L 782 1218.003906 L 187.714844 1218.003906 Z M 187.714844 282.753906 "/>
</clipPath>
</defs>
<g id="surface1">
<rect x="0" y="0" width="1500" height="1500" style="fill:rgb(79.215686%,20.392157%,20%);fill-opacity:1;stroke:none;"/>
<g clip-path="url(#clip1)" clip-rule="nonzero">
<path style=" stroke:none;fill-rule:nonzero;fill:rgb(96.862745%,88.235294%,88.235294%);fill-opacity:1;" d="M 923.53125 461.152344 L 718.8125 1039.605469 L 659.839844 1039.605469 L 575.105469 461.152344 L 627.300781 461.152344 L 631.367188 518.09375 L 695.089844 969.105469 L 698.476562 969.105469 L 857.101562 520.804688 L 873.367188 461.152344 Z M 923.53125 461.152344 "/>
</g>
<g clip-path="url(#clip2)" clip-rule="nonzero">
<path style=" stroke:none;fill-rule:nonzero;fill:rgb(96.862745%,88.235294%,88.235294%);fill-opacity:1;" d="M 187.714844 750.378906 C 187.714844 491.910156 344.863281 282.375 538.714844 282.375 C 625.054688 282.375 704.109375 323.933594 765.242188 392.875 L 733.589844 392.875 C 678.894531 339.78125 611.550781 308.460938 538.714844 308.457031 C 355.667969 308.457031 207.273438 506.3125 207.273438 750.378906 C 207.273438 994.445312 355.667969 1192.300781 538.714844 1192.300781 C 611.550781 1192.300781 678.894531 1160.980469 733.589844 1107.882812 L 765.242188 1107.882812 C 704.109375 1176.820312 625.054688 1218.382812 538.714844 1218.382812 C 344.863281 1218.382812 187.714844 1008.847656 187.714844 750.378906 Z M 187.714844 750.378906 "/>
</g>
<g clip-path="url(#clip3)" clip-rule="nonzero">
<path style="fill:none;stroke-width:1;stroke-linecap:butt;stroke-linejoin:miter;stroke:rgb(100%,100%,100%);stroke-opacity:1;stroke-miterlimit:4;" d="M 0.000364248 123.600069 C 0.000364248 55.338341 55.337674 0.000000000000014211 123.599402 0.000000000000014211 C 154.002597 0.000000000000014211 181.840442 10.975646 203.367384 29.183106 L 192.221517 29.183106 C 172.961437 15.16102 149.247413 6.889309 123.599402 6.888278 C 59.142372 6.888278 6.88761 59.142007 6.88761 123.600069 C 6.88761 188.058131 59.142372 240.311861 123.599402 240.311861 C 149.247413 240.311861 172.961437 232.040151 192.221517 218.017033 L 203.367384 218.017033 C 181.840442 236.223461 154.002597 247.200139 123.599402 247.200139 C 55.337674 247.200139 0.000364248 191.861797 0.000364248 123.600069 Z M 0.000364248 123.600069 " transform="matrix(2.839828,0,0,3.786437,187.713809,282.375)"/>
</g>
</g>
</svg>
